HIERARCHY
ROOT hip
{
	OFFSET	0.00  0.00  0.00 
	CHANNELS 6 Xposition Yposition Zposition Xrotation Zrotation Yrotation
	JOINT abdomen
	{
		OFFSET	0.000000 1.799998 0.000000
		CHANNELS 3 Xrotation Zrotation Yrotation
		JOINT chest
		{
			OFFSET	0.000000 4.464001 -0.360000
			CHANNELS 3 Xrotation Zrotation Yrotation
			JOINT neck
			{
				OFFSET	0.000000 5.400002 -0.144000
				CHANNELS 3 Xrotation Zrotation Yrotation
				JOINT head
				{
					OFFSET	0.000000 1.655998 0.000000
					CHANNELS 3 Xrotation Zrotation Yrotation
				}
			}
			JOINT lCollar
			{
				OFFSET	1.872000 3.528000 -0.432000
				CHANNELS 3 Yrotation Zrotation Xrotation
				JOINT lShldr
				{
					OFFSET	1.656000 0.000000 0.000000
					CHANNELS 3 Zrotation Yrotation Xrotation
					JOINT lForeArm
					{
						OFFSET	5.400000 0.000000 0.000000
						CHANNELS 3 Yrotation Zrotation Xrotation
						JOINT lHand
						{
							OFFSET	4.392000 0.000000 0.000000
							CHANNELS 3 Zrotation Yrotation Xrotation
						}
					}
				}
			}
			JOINT rCollar
			{
				OFFSET	-1.872000 3.528000 -0.432000
				CHANNELS 3 Yrotation Zrotation Xrotation
				JOINT rShldr
				{
					OFFSET	-1.656000 0.000000 0.000000
					CHANNELS 3 Zrotation Yrotation Xrotation
					JOINT rForeArm
					{
						OFFSET	-5.400000 0.000000 0.000000
						CHANNELS 3 Yrotation Zrotation Xrotation
						JOINT rHand
						{
							OFFSET	-4.392000 0.000000 0.000000
							CHANNELS 3 Zrotation Yrotation Xrotation
						}
					}
				}
			}
		}
	}
	JOINT lThigh
	{
		OFFSET	2.808000 -0.864002 0.720000
		CHANNELS 3 Xrotation Zrotation Yrotation
		JOINT lShin
		{
			OFFSET	-1.080000 -10.583999 0.000000
			CHANNELS 3 Xrotation Zrotation Yrotation
			JOINT lFoot
			{
				OFFSET	0.000000 -10.152000 -0.648000
				CHANNELS 3 Xrotation Yrotation Zrotation
				End Site
				{
					OFFSET 0.000000 -1.296000 2.448000
				}
			}
		}
	}
	JOINT rThigh
	{
		OFFSET	-2.808000 -0.864002 0.720000
		CHANNELS 3 Xrotation Zrotation Yrotation
		JOINT rShin
		{
			OFFSET	1.080000 -10.583999 0.000000
			CHANNELS 3 Xrotation Zrotation Yrotation
			JOINT rFoot
			{
				OFFSET	0.000000 -10.152000 -0.648000
				CHANNELS 3 Xrotation Yrotation Zrotation
				End Site
				{
					OFFSET 0.000000 -1.296000 2.448000
				}
			}
		}
	}
}
MOTION
Frames:     11
Frame Time: 0.033333
0.000000 23.151886 0.000000 0.000000 0.000000 0.000000 0.000000 0.000000 0.000000 0.000000 0.000000 0.000000 0.000000 0.000000 0.000000 0.000000 0.000000 0.000000 0.000000 0.000000 0.000000 0.000000 0.000000 0.000000 0.000000 0.000000 0.000000 0.000000 0.000000 0.000000 9.990230 0.000000 0.000000 0.000000 0.000000 0.000000 0.000000 0.000000 0.000000 0.000000 0.000000 0.000000 0.000000 0.000000 0.000000 0.009766 0.000000 0.000000 -0.273437 0.000000 0.000000 0.000000 -0.058594 0.000000 0.020493 0.032569 -0.011854 0.497961 0.003586 0.012903 
2.557541 8.658073 -4.709592 1.939700 0.849000 -0.090600 -0.009259 -0.726273 0.605903 12.226600 1.904360 -0.148244 0.000000 0.000000 1.888310 0.000000 0.000000 0.000000 -30.000000 -17.372999 -6.797200 -50.973598 -18.289600 18.709999 -42.846802 -0.000000 20.000000 6.854150 3.410730 0.000000 30.000000 17.372999 -6.797200 50.973598 18.289600 18.709999 42.846802 0.000000 20.000000 -6.854150 -3.410730 0.000000 -88.388802 26.621201 -0.467411 92.981003 -0.203401 -0.211224 -11.000000 -0.000000 -0.000000 -92.388802 -25.621201 0.467411 92.981003 0.203401 0.211224 -3.000000 10.000000 0.000000 
2.557073 8.658472 -4.709535 1.467436 0.645456 -0.079740 0.051364 -0.468943 -0.628216 12.300842 1.261018 -0.177857 -1.157194 -0.878669 -1.882813 -0.907870 0.183046 -0.008451 -30.000000 -17.372040 -6.841170 -50.970409 -18.288568 18.744762 -42.865166 0.007636 19.996523 6.253328 3.249892 -0.031059 30.000000 17.372999 -5.167622 50.973644 18.289600 14.224350 42.846825 0.000000 20.000000 -5.193411 -3.361494 0.000000 -90.468689 26.797382 -1.446886 93.552620 -0.090527 0.544387 -8.852315 -2.253169 0.202783 -103.625534 -30.749763 1.281796 99.170105 1.366034 0.298271 2.268937 10.547323 -3.681875 
2.556461 8.658971 -4.709472 0.834224 0.372543 -0.065178 0.120568 -0.304929 -1.990146 12.424306 0.535098 -0.222904 -2.708764 -2.056792 -6.939146 -2.125146 0.428475 -0.019782 -30.000004 -17.370756 -6.900125 -50.966141 -18.287188 18.791376 -42.889793 0.017874 19.991863 5.447746 3.034242 -0.072703 30.000004 17.373001 -2.982679 50.973713 18.289602 8.209981 42.846859 0.000000 20.000002 -2.966688 -3.295480 0.000000 -92.983261 26.997858 -2.471444 94.417694 0.059410 1.562752 -6.172934 -5.056497 0.514649 -113.000000 -37.000000 2.000000 107.073280 2.809314 0.361940 9.431250 11.543671 -8.649098 
2.555782 8.659513 -4.709410 0.122982 0.066000 -0.048822 0.207138 0.425102 -3.883527 12.422061 -0.407579 -0.233756 -4.451529 -3.380090 -12.618555 -3.492422 0.704147 -0.032510 -30.000008 -17.369314 -6.966345 -50.961346 -18.285637 18.843733 -42.917458 0.029374 19.986631 4.542895 2.792017 -0.119479 30.000008 17.373005 -0.528493 50.973789 18.289606 1.454480 42.846897 0.000000 20.000004 -0.465574 -3.221330 0.000000 -95.564827 27.251135 -4.130399 95.481339 0.161272 2.206858 -3.741977 -7.627928 0.577306 -111.234207 -43.485706 1.977778 113.584976 4.144351 0.581940 13.804447 11.317143 -11.806807 
2.555096 8.660063 -4.709348 -0.591898 -0.242112 -0.032382 0.331679 2.664000 -7.037000 12.064000 -1.842000 -0.146337 -6.203209 -4.710159 -18.327021 -4.866693 0.981230 -0.045302 -30.000013 -17.367867 -7.032904 -50.956528 -18.284079 18.896357 -42.945267 0.040933 19.981373 3.633414 2.548553 -0.166494 30.000013 17.373007 1.938249 50.973869 18.289608 -5.335582 42.846939 0.000000 20.000006 2.048337 -3.146801 0.000000 -98.000000 27.621201 -7.372000 96.618263 0.113900 1.707000 -2.330100 -9.209000 -0.073200 -105.032997 -49.582447 1.438210 115.304001 5.000000 1.218000 9.685800 7.643000 -9.414000 
2.554462 8.660597 -4.709286 -1.236026 -0.519729 -0.017569 0.505082 6.923906 -11.900695 11.212585 -3.901792 0.078029 -7.781525 -5.908590 -23.470514 -6.104952 1.230889 -0.056829 -30.000011 -17.366558 -7.092874 -50.952175 -18.282671 18.943768 -42.970310 0.051348 19.976629 2.813943 2.329185 -0.208856 30.000011 17.373009 4.160856 50.973930 18.289608 -11.453631 42.846966 0.000000 20.000006 4.313446 -3.079648 0.000000 -100.089699 28.028770 -12.695159 97.703171 -0.161199 -0.309355 -2.442918 -9.334197 -1.705847 -102.457779 -54.637962 0.445449 110.170349 5.156548 2.431698 -4.671665 -0.265236 -1.791448 
2.553943 8.661077 -4.709227 -1.735012 -0.734791 -0.006094 0.699386 11.994136 -17.810707 10.100514 -6.155158 0.376421 -9.004198 -6.836978 -27.455025 -7.064194 1.424293 -0.065758 -30.000010 -17.365545 -7.139330 -50.948799 -18.281582 18.980495 -42.989708 0.059415 19.972956 2.179123 2.159246 -0.241673 30.000010 17.373016 5.882643 50.973976 18.289612 -16.193100 42.846992 0.000000 20.000004 6.068157 -3.027627 0.000000 -101.691971 27.821409 -18.801413 98.610802 -0.651846 -2.626036 -3.525862 -8.709786 -3.809703 -100.382004 -58.000000 -2.472000 101.488998 5.000000 3.992000 -15.191900 -7.441000 -5.507000 
2.553597 8.661472 -4.709166 -2.014467 -0.855235 0.000333 0.876917 16.233297 -23.824612 9.053035 -8.028944 0.660518 -9.688949 -7.356916 -29.686522 -7.601411 1.532607 -0.070759 -30.000000 -17.364973 -7.165347 -50.946899 -18.280970 19.001062 -43.000561 0.063934 19.970894 1.823595 2.064073 -0.260051 30.000000 17.373016 6.846920 50.973995 18.289610 -18.847412 42.846996 0.000000 20.000000 7.050874 -2.998492 0.000000 -102.679176 26.203392 -23.942961 99.215874 -1.323196 -3.629699 -4.759316 -8.334983 -5.678857 -94.728302 -59.386971 -8.210347 93.471634 4.848121 5.257887 -10.553000 -7.079000 -22.705999 
2.553487 8.661744 -4.709105 -2.000000 -0.849000 0.000000 1.000000 18.000000 -29.000000 8.395400 -8.950000 0.842000 -9.653500 -7.330000 -29.570999 -7.573600 1.527000 -0.070500 -30.000000 -17.365000 -7.164000 -50.946999 -18.281000 19.000000 -43.000000 0.063700 19.971001 1.842000 2.069000 -0.259100 30.000000 17.373009 6.797000 50.973999 18.289602 -18.709999 42.847000 0.000000 20.000000 7.000000 -3.000000 0.000000 -102.923683 22.379000 -26.372000 99.393120 -2.140403 -1.707000 -5.323667 -9.209000 -6.607398 -88.804001 -60.000000 -13.829000 88.592003 4.140000 4.341000 -3.250300 4.816000 -8.932000 
2.553649 8.661876 -4.709046 -1.647245 -0.696964 -0.008112 1.037142 16.211437 -32.401726 8.366640 -8.510554 0.855794 -8.789141 -6.673683 -26.754183 -6.895472 1.390275 -0.064188 -30.000000 -17.365715 -7.131158 -50.949379 -18.281769 18.974035 -42.986286 0.057996 19.973597 2.290780 2.189137 -0.235901 30.000000 17.373001 5.579796 50.973969 18.289597 -15.359467 42.846989 0.000000 20.000000 5.759521 -3.036776 0.000000 -102.297836 15.621864 -24.400688 99.017281 -3.068619 3.404546 -4.399300 -11.287006 -5.889415 -89.709793 -50.014542 -9.513903 88.178894 2.369613 -0.112631 0.506456 17.654232 2.581157 
